<?xml version="1.0" standalone="no"?>
<!DOCTYPE svg PUBLIC "-//W3C//DTD SVG 20010904//EN"
 "http://www.w3.org/TR/2001/REC-SVG-20010904/DTD/svg10.dtd">
<svg version="1.0" xmlns="http://www.w3.org/2000/svg" class="region"
 width="1182.000000pt" height="928.000000pt" viewBox="0 0 1182.000000 928.000000"
 preserveAspectRatio="xMidYMid meet">
<metadata>
Created by potrace 1.16, written by Peter Selinger 2001-2019
</metadata>
<g transform="translate(0.000000,928.000000) scale(0.100000,-0.100000)"
fill="#000000" stroke="none">
<path d="M7880 8912 c0 -56 -3 -70 -20 -82 -11 -8 -20 -21 -20 -28 0 -8 -13
-27 -30 -42 -16 -15 -30 -34 -30 -42 0 -7 -9 -20 -20 -28 -11 -8 -20 -20 -20
-28 0 -7 -11 -24 -25 -37 l-24 -25 -233 -1 c-175 -1 -219 -4 -178 -10 30 -5
142 -7 247 -3 l193 6 33 47 c125 173 135 192 140 269 2 39 0 72 -4 72 -5 0 -9
-31 -9 -68z"/>
<path d="M10252 8761 c46 -11 77 -25 98 -46 29 -28 35 -30 96 -26 59 3 76 -2
209 -55 94 -37 147 -64 150 -75 3 -9 35 -32 70 -50 35 -19 68 -43 74 -54 8
-17 10 -16 10 13 1 26 -3 32 -19 32 -11 0 -20 5 -20 10 0 6 -9 10 -20 10 -11
0 -20 5 -20 10 0 6 -7 10 -16 10 -20 0 -44 24 -44 44 0 11 -9 16 -30 16 -16 0
-30 5 -30 10 0 6 -9 10 -20 10 -11 0 -20 5 -20 10 0 6 -13 10 -30 10 -16 0
-30 5 -30 10 0 6 -9 10 -20 10 -11 0 -20 5 -20 10 0 6 -13 10 -30 10 -16 0
-30 5 -30 10 0 6 -32 10 -76 10 -72 0 -78 2 -104 30 -21 23 -37 30 -64 30 -20
0 -36 5 -36 10 0 6 -21 9 -47 9 l-48 -1 67 -17z"/>
<path d="M6921 8508 c-1 -16 4 -28 9 -28 6 0 10 -25 10 -56 0 -53 -2 -57 -50
-104 -27 -27 -50 -54 -50 -60 0 -7 -13 -25 -30 -40 -16 -15 -30 -33 -30 -39 0
-16 -87 -101 -103 -101 -7 0 -19 -9 -27 -20 -8 -11 -21 -20 -28 -20 -8 0 -27
-13 -42 -30 -30 -32 -49 -37 -68 -18 -20 20 -39 -6 -21 -28 11 -13 11 -18 2
-21 -9 -3 -13 -29 -13 -80 0 -70 -2 -77 -30 -103 -16 -15 -30 -36 -30 -47 1
-14 9 -9 34 21 30 35 34 48 40 117 l7 77 124 86 c121 84 193 157 226 229 7 15
29 37 49 51 31 21 39 33 45 68 3 24 8 54 10 68 3 14 -4 43 -14 65 -18 38 -19
39 -20 13z"/>
<path d="M11460 7694 c0 -4 79 -88 175 -189 96 -100 175 -185 175 -188 0 -2
-40 -32 -88 -65 -96 -66 -124 -92 -100 -92 7 0 20 9 28 20 8 11 21 20 30 20 9
0 22 9 30 20 8 11 21 20 30 20 9 0 22 9 30 20 8 11 22 20 32 20 14 0 18 8 18
35 0 32 -15 50 -175 210 -96 96 -177 175 -180 175 -3 0 -5 -3 -5 -6z"/>
<path d="M7380 7255 c-47 -12 -116 -35 -155 -50 -38 -15 -155 -53 -260 -84
-144 -44 -210 -69 -275 -106 -53 -31 -107 -54 -145 -61 -52 -10 -55 -12 -22
-13 30 -1 37 -5 37 -21 0 -30 49 -17 154 42 66 37 140 66 280 108 105 32 225
71 266 88 134 52 208 66 292 52 67 -11 133 -39 150 -64 22 -33 18 -86 -12
-163 l-30 -81 -58 -15 c-31 -8 -91 -21 -132 -28 -99 -15 -145 -45 -153 -96
-10 -57 -10 -56 39 -97 72 -60 161 -75 412 -69 l197 5 154 50 153 50 176 -7
c172 -7 181 -9 347 -57 93 -27 231 -65 305 -83 222 -56 271 -75 302 -121 44
-62 52 -146 27 -263 -12 -53 -33 -117 -47 -144 -24 -42 -33 -49 -89 -68 -46
-15 -67 -28 -79 -48 -20 -33 -83 -67 -145 -76 -42 -6 -47 -11 -99 -88 -30 -44
-65 -105 -77 -134 -29 -72 -75 -128 -113 -139 l-32 -9 20 -23 c15 -18 26 -21
46 -16 35 8 107 97 131 160 10 27 40 81 66 120 43 65 51 72 89 78 57 9 120 42
151 79 16 18 50 40 84 53 79 29 116 88 146 233 20 91 21 115 12 187 -8 68 -16
92 -44 133 -32 48 -39 52 -124 80 -49 17 -146 44 -215 61 -69 17 -200 54 -293
81 -163 48 -172 49 -360 59 l-192 10 -150 -51 -150 -50 -198 -4 c-226 -5 -316
7 -365 46 -63 50 -27 89 99 108 46 6 111 21 144 31 l60 20 38 101 c27 70 37
109 32 127 -23 96 -25 100 -73 130 -43 28 -92 41 -207 56 -16 2 -68 -6 -115
-19z"/>
<path d="M11425 7040 c-27 -16 -61 -30 -75 -30 -14 0 -38 -9 -55 -20 -38 -25
-92 -25 -175 0 -95 29 -127 26 -253 -27 -80 -33 -138 -50 -202 -58 -49 -7
-102 -16 -116 -19 -21 -6 -27 -3 -36 17 -8 17 -23 27 -48 31 -20 4 -38 6 -39
4 -47 -66 -48 -70 -37 -94 19 -42 14 -54 -22 -54 -41 0 -101 -31 -152 -80 -22
-21 -54 -45 -72 -54 -18 -9 -38 -26 -44 -39 -6 -12 -35 -47 -63 -77 -28 -30
-76 -88 -106 -128 -42 -55 -57 -69 -65 -59 -14 18 -49 37 -189 102 -66 31
-126 53 -133 51 -18 -7 -16 -46 2 -46 8 0 15 5 15 10 0 6 9 10 20 10 11 0 20
-4 20 -10 0 -5 9 -10 20 -10 11 0 20 -4 20 -10 0 -5 9 -10 20 -10 11 0 20 -4
20 -10 0 -5 9 -10 20 -10 11 0 20 -4 20 -10 0 -5 14 -10 30 -10 17 0 30 -4 30
-10 0 -5 7 -10 15 -10 20 0 65 -45 65 -65 0 -36 38 -10 90 62 30 42 80 104
111 137 31 34 61 71 68 84 6 12 19 22 27 22 8 0 39 22 67 49 61 57 97 76 156
84 58 7 64 15 52 67 -11 49 -1 80 27 80 10 0 22 -12 29 -30 12 -33 33 -38 80
-19 15 6 64 15 109 19 60 6 108 19 193 54 122 50 170 56 241 31 49 -17 90 -20
90 -5 0 6 23 10 50 10 28 0 50 5 50 10 0 6 9 10 20 10 11 0 20 5 20 10 0 6 17
10 38 10 26 0 42 6 52 20 8 11 22 20 32 20 10 0 18 7 18 15 0 19 4 20 -55 -15z"/>
<path d="M6165 6871 c-3 -6 -4 -15 0 -20 3 -5 -2 -16 -10 -24 -8 -9 -15 -23
-15 -31 0 -19 -11 -21 -28 -4 -19 19 -40 -6 -23 -26 11 -13 10 -18 -2 -31 -9
-8 -22 -15 -29 -15 -8 0 -20 -9 -28 -20 -8 -11 -22 -20 -32 -20 -10 0 -18 -4
-18 -10 0 -5 -8 -10 -18 -10 -10 0 -24 -9 -32 -20 -10 -14 -26 -20 -52 -20
-21 0 -38 -4 -38 -10 0 -5 -18 -10 -40 -10 -33 0 -40 -3 -40 -20 0 -11 -4 -20
-10 -20 -5 0 -10 -13 -10 -29 0 -16 -5 -31 -11 -33 -6 -2 -9 -15 -7 -28 3 -20
9 -10 32 46 l28 71 68 10 c54 9 88 22 157 64 112 66 122 75 144 125 l19 42 82
12 c45 7 102 19 127 26 l46 12 -42 1 c-24 1 -43 -3 -43 -9 0 -6 -27 -10 -60
-10 -33 0 -60 -4 -60 -10 0 -5 -6 -10 -14 -10 -8 0 -13 7 -12 16 1 20 -19 30
-29 15z"/>
<path d="M5720 6406 c0 -9 50 -66 110 -126 61 -60 110 -114 110 -120 0 -14
-46 -60 -61 -60 -6 0 -24 -13 -39 -30 -29 -31 -53 -40 -44 -16 7 18 -15 31
-28 18 -8 -8 -8 -15 1 -26 11 -13 8 -20 -14 -41 -20 -21 -29 -24 -40 -15 -23
19 -32 5 -34 -52 -1 -29 -6 -54 -11 -56 -6 -2 -10 -11 -10 -21 0 -9 -9 -23
-20 -31 -11 -8 -20 -22 -20 -32 0 -10 -4 -18 -10 -18 -5 0 -10 -8 -10 -18 0
-10 -9 -24 -20 -32 -11 -8 -20 -22 -20 -32 0 -10 -4 -18 -10 -18 -5 0 -10 -8
-10 -18 0 -10 -9 -24 -20 -32 -11 -8 -20 -22 -20 -32 0 -10 -4 -18 -10 -18 -5
0 -10 -9 -10 -20 0 -11 -4 -20 -10 -20 -5 0 -10 -8 -10 -18 0 -10 -9 -24 -20
-32 -17 -12 -20 -25 -19 -85 l2 -70 6 55 c5 47 24 86 134 271 73 125 127 227
127 241 0 22 23 43 130 125 130 98 152 125 134 161 -17 33 -234 236 -234 218z"/>
<path d="M8505 5588 c-44 -23 -180 -202 -215 -283 -25 -59 -25 -74 2 -130 19
-39 30 -48 75 -65 64 -24 64 -24 57 -5 -4 8 -17 15 -30 15 -28 0 -94 60 -94
85 0 8 -4 15 -10 15 -5 0 -10 9 -10 20 0 11 5 20 10 20 6 0 10 13 10 28 0 16
8 34 20 42 11 8 20 21 20 28 0 8 14 27 30 42 17 15 30 33 30 39 0 15 126 141
140 141 6 0 33 -22 60 -50 27 -27 56 -50 64 -50 9 0 16 -4 16 -10 0 -5 15 -10
33 -10 l32 1 -45 24 c-25 13 -65 44 -90 69 -45 46 -67 54 -105 34z"/>
<path d="M7885 3958 c-28 -30 -70 -85 -95 -121 -25 -37 -48 -67 -51 -67 -4 0
-42 27 -85 60 l-78 60 -68 -67 c-65 -64 -68 -66 -93 -53 -22 12 -27 11 -44 -4
-19 -17 -20 -17 -34 11 -8 15 -20 45 -26 65 -12 36 -53 74 -70 64 -4 -3 -14
-33 -21 -67 -12 -55 -17 -63 -47 -75 -35 -15 -39 -24 -23 -54 10 -18 -4 -70
-19 -70 -3 0 -90 77 -193 170 -103 94 -191 170 -196 170 -5 0 -38 -30 -73 -67
-36 -38 -81 -79 -102 -93 -20 -14 -37 -31 -37 -37 0 -7 79 -143 176 -302 97
-159 176 -293 176 -298 0 -4 -16 -21 -36 -37 l-35 -29 -63 23 c-35 12 -77 35
-93 51 -17 16 -36 29 -43 29 -24 0 -122 -55 -122 -68 0 -8 9 -29 19 -46 17
-27 18 -41 11 -101 -7 -61 -5 -74 11 -97 10 -15 19 -31 19 -36 0 -6 -47 -29
-104 -52 l-104 -41 -11 -44 c-14 -56 -14 -55 8 -55 14 0 21 10 25 35 5 26 14
39 33 46 86 33 176 73 193 87 20 17 20 17 -10 54 -29 35 -30 38 -24 112 6 61
4 80 -10 100 -16 25 -16 26 25 47 l41 21 27 -26 c14 -13 60 -37 100 -52 83
-29 81 -29 153 30 21 17 38 36 38 42 0 5 -81 143 -180 305 l-180 294 28 19
c15 11 53 46 84 78 31 32 59 58 63 58 3 0 92 -78 196 -172 104 -95 194 -175
199 -176 16 -6 60 99 54 125 -5 18 -1 25 19 32 19 8 28 20 33 48 11 63 20 70
34 27 17 -50 57 -114 72 -114 6 0 20 7 30 17 17 15 20 15 41 -3 12 -11 31 -26
41 -34 18 -14 19 -13 14 21 -6 34 -2 40 47 89 l53 52 67 -51 c66 -49 95 -62
95 -41 0 6 9 10 20 10 13 0 20 7 20 18 0 10 9 24 20 32 11 8 20 21 20 28 0 7
18 31 40 52 22 21 40 44 40 51 0 6 9 20 21 30 12 10 19 23 17 30 -2 6 -26 -13
-53 -43z"/>
<path d="M5450 2595 c-93 -40 -165 -65 -201 -69 l-57 -7 -21 -58 c-15 -43 -21
-81 -21 -148 0 -88 1 -90 33 -121 40 -39 50 -40 74 -6 l19 26 42 -54 41 -53
-34 -35 c-18 -19 -37 -47 -40 -62 -6 -24 -4 -28 14 -28 14 0 21 6 21 18 0 10
18 36 40 57 22 21 40 44 40 50 0 8 -91 129 -116 154 -2 3 -17 -8 -34 -24 -24
-23 -32 -26 -45 -15 -21 18 -21 169 1 227 16 41 19 43 56 43 26 0 88 21 180
60 77 33 147 60 156 60 9 0 53 -36 97 -79 79 -79 81 -80 143 -87 43 -5 62 -3
62 5 0 7 32 11 100 11 55 0 100 3 100 8 0 4 -68 8 -151 9 l-152 1 -91 91 c-50
50 -96 91 -101 90 -6 -1 -75 -29 -155 -64z"/>
<path d="M1880 2562 c0 -12 5 -22 10 -22 6 0 10 -20 10 -45 0 -35 -6 -52 -25
-70 -13 -14 -31 -25 -39 -25 -8 0 -16 -6 -19 -12 -3 -10 -7 -10 -20 0 -24 21
-34 8 -36 -49 -1 -38 -7 -57 -21 -69 -11 -10 -20 -23 -20 -29 0 -15 -66 -81
-80 -81 -14 0 -80 66 -80 80 0 17 -26 40 -44 40 -9 0 -16 5 -16 10 0 6 -9 10
-20 10 -11 0 -20 5 -20 10 0 6 -7 10 -16 10 -9 0 -25 10 -35 22 -21 23 -33 21
-23 -5 3 -9 38 -33 78 -53 61 -31 77 -45 97 -83 21 -40 29 -46 60 -49 60 -5
85 12 119 77 16 33 30 73 30 89 0 25 7 32 61 58 39 18 65 37 70 52 14 36 10
115 -6 136 -15 19 -15 19 -15 -2z"/>
<path d="M4955 1920 l-50 -69 -75 -3 -75 -3 -36 -63 c-20 -35 -47 -95 -59
-133 -15 -46 -31 -76 -49 -89 l-26 -19 23 -1 c33 0 52 23 52 64 0 20 5 36 10
36 6 0 10 9 10 20 0 11 5 20 10 20 6 0 10 9 10 20 0 11 5 20 10 20 6 0 10 9
10 20 0 11 5 20 10 20 6 0 10 7 10 15 0 9 11 27 25 40 21 22 33 25 100 25 65
0 75 2 75 18 0 10 9 24 20 32 11 8 20 20 20 28 0 7 7 20 15 28 13 14 17 14 30
0 8 -8 15 -22 15 -30 0 -9 5 -16 10 -16 6 0 10 -7 10 -15 0 -9 11 -27 25 -40
20 -21 34 -25 80 -25 30 0 55 5 55 10 0 6 9 10 20 10 11 0 20 4 20 10 0 5 -21
3 -47 -5 -77 -23 -106 -8 -148 76 -20 38 -41 69 -48 69 -6 0 -34 -32 -62 -70z"/>
</g>
</svg>
